#!OML:ASF H:\Pregnant\Project 1\Capture day 1\Session 1\femalepreg.ASF
:FULLY-SPECIFIED
:DEGREES
220
root 3.65192 15.5889 31.263 37.8052 -84.6033 32.7789
lowerback 9.86195 4.49625 3.26044
upperback 7.94683 5.60055 4.25787
thorax 2.67696 2.6202 2.18068
lowerneck -12.9617 8.9874 12.186
upperneck 26.563 7.51826 3.72546
head 11.2262 4.79967 0.333885
rclavicle -1.90833e-014 -2.127e-014
rhumerus -21.3342 58.2699 -83.7725
rradius 87.7318
rwrist -52.253
rhand 32.0225 -12.5336
rfingers 7.12502
rthumb 55.5155 -30.2927
lclavicle -1.90833e-014 -2.127e-014
lhumerus -43.923 -10.4539 70.0262
lradius 40.1474
lwrist 57.8338
lhand 3.46962 2.28358
lfingers 7.12502
lthumb 28.9092 30.0629
rfemur -95.3575 4.518 -0.0856608
rtibia 28.3271
rfoot 0.219068 -19.6247
rtoes 8.5113
lfemur 0 0 0
ltibia 0
lfoot 0 0
ltoes 0
221
root 3.64899 15.5861 31.2612 37.8843 -84.5934 32.8429
lowerback 9.98782 4.47835 3.28684
upperback 7.98637 5.57788 4.27696
thorax 2.65162 2.60752 2.1801
lowerneck -13.0176 8.98474 12.2202
upperneck 26.5596 7.52719 3.63118
head 11.2413 4.79715 0.298538
rclavicle -2.8625e-014 -2.52457e-014
rhumerus -21.2528 58.3583 -83.7226
rradius 87.7617
rwrist -52.3726
rhand 31.9006 -12.778
rfingers 7.12502
rthumb 55.4071 -30.618
lclavicle -2.8625e-014 -2.52457e-014
lhumerus -43.7667 -10.4683 70.0075
lradius 40.1557
lwrist 57.9335
lhand 3.31255 2.20901
lfingers 7.12502
lthumb 28.7592 30.0139
rfemur -95.4935 4.45965 -0.0759794
rtibia 28.3268
rfoot 0.224301 -19.6155
rtoes 8.467
lfemur 0 0 0
ltibia 0
lfoot 0 0
ltoes 0
222
root 3.64619 15.5835 31.2595 37.9864 -84.587 32.8739
lowerback 10.1026 4.46271 3.3143
upperback 8.02615 5.55785 4.29421
thorax 2.6329 2.59631 2.17781
lowerneck -13.0625 8.98205 12.2469
upperneck 26.5539 7.53699 3.54574
head 11.2528 4.79512 0.267027
rclavicle 4.13472e-014 5.00937e-014
rhumerus -21.1638 58.4444 -83.6638
rradius 87.8029
rwrist -52.4819
rhand 31.7754 -13.0489
rfingers 7.12502
rthumb 55.2957 -30.9715
lclavicle 4.13472e-014 5.00937e-014
lhumerus -43.6047 -10.4657 69.9775
lradius 40.1562
lwrist 57.9981
lhand 3.10637 2.09802
lfingers 7.12502
lthumb 28.5622 29.9362
rfemur -95.619 4.4093 -0.0649086
rtibia 28.323
rfoot 0.232707 -19.6064
rtoes 8.4287
lfemur 0 0 0
ltibia 0
lfoot 0 0
ltoes 0
223
root 3.64355 15.5813 31.2582 38.1014 -84.5822 32.8822
lowerback 10.2086 4.45296 3.3428
upperback 8.06469 5.54521 4.31418
thorax 2.61744 2.58872 2.17788
lowerneck -13.0968 8.97551 12.2577
upperneck 26.5442 7.54446 3.4711
head 11.259 4.79167 0.240837
rclavicle 2.22639e-014 1.93815e-014
rhumerus -21.0794 58.5149 -83.5909
rradius 87.8548
rwrist -52.5671
rhand 31.6596 -13.3189
rfingers 7.12502
rthumb 55.1925 -31.3174
lclavicle 2.22639e-014 1.93815e-014
lhumerus -43.4334 -10.4523 69.9483
lradius 40.1412
lwrist 58.03
lhand 2.86085 1.9493
lfingers 7.12502
lthumb 28.3276 29.8267
rfemur -95.7339 4.36389 -0.0522162
rtibia 28.3156
rfoot 0.235527 -19.5968
rtoes 8.42873
lfemur 0 0 0
ltibia 0
lfoot 0 0
ltoes 0
224
root 3.64106 15.5792 31.257 38.2697 -84.5781 32.8274
lowerback 10.3068 4.44721 3.37685
upperback 8.10108 5.53798 4.33579
thorax 2.60432 2.584 2.17671
lowerneck -13.1156 8.96804 12.2609
upperneck 26.5317 7.55562 3.39521
head 11.2609 4.78898 0.215103
rclavicle 4.77083e-014 3.44891e-014
rhumerus -21.002 58.5735 -83.5108
rradius 87.9138
rwrist -52.6278
rhand 31.56 -13.5699
rfingers 7.12502
rthumb 55.1037 -31.6333
lclavicle 4.77083e-014 3.44891e-014
lhumerus -43.2592 -10.4388 69.9217
lradius 40.1145
lwrist 58.0481
lhand 2.56775 1.77091
lfingers 7.12502
lthumb 28.0474 29.6945
rfemur -95.8383 4.32668 -0.0341587
rtibia 28.304
rfoot 0.249232 -19.5855
rtoes 8.4111
lfemur 0 0 0
ltibia 0
lfoot 0 0
ltoes 0
225
root 3.63869 15.5775 31.2562 38.4611 -84.5721 32.7408
lowerback 10.3978 4.44634 3.41596
upperback 8.13545 5.53717 4.36096
thorax 2.59318 2.58255 2.17645
lowerneck -13.1229 8.95765 12.2502
upperneck 26.5074 7.56639 3.32886
head 11.2546 4.7856 0.193966
rclavicle -6.36111e-014 -8.11041e-014
rhumerus -20.9384 58.6167 -83.4179
rradius 87.9823
rwrist -52.6613
rhand 31.4846 -13.7764
rfingers 7.12502
rthumb 55.0365 -31.8887
lclavicle -6.36111e-014 -8.11041e-014
lhumerus -43.0831 -10.4283 69.9046
lradius 40.0851
lwrist 58.0614
lhand 2.22068 1.56902
lfingers 7.12502
lthumb 27.7156 29.5464
rfemur -95.9318 4.2918 -0.0118947
rtibia 28.2892
rfoot 0.260664 -19.5711
rtoes 8.42923
lfemur 0 0 0
ltibia 0
lfoot 0 0
ltoes 0
226
root 3.63634 15.5759 31.2556 38.6828 -84.5674 32.6158
lowerback 10.48 4.44738 3.45551
upperback 8.16717 5.53879 4.38834
thorax 2.5838 2.5823 2.17857
lowerneck -13.1371 8.94613 12.2547
upperneck 26.4865 7.57312 3.25376
head 11.2522 4.78098 0.167234
rclavicle -6.36111e-015 -8.74653e-015
rhumerus -20.8859 58.6572 -83.325
rradius 88.0536
rwrist -52.6829
rhand 31.4037 -13.9564
rfingers 7.12502
rthumb 54.9644 -32.1209
lclavicle -6.36111e-015 -8.74653e-015
lhumerus -42.9102 -10.4095 69.8926
lradius 40.0501
lwrist 58.0831
lhand 1.81945 1.36334
lfingers 7.12502
lthumb 27.3319 29.4019
rfemur -96.0173 4.26229 0.0129763
rtibia 28.2725
rfoot 0.271445 -19.5544
rtoes 8.46824
lfemur 0 0 0
ltibia 0
lfoot 0 0
ltoes 0
227
root 3.63395 15.5744 31.2553 38.909 -84.5655 32.4805
lowerback 10.5539 4.45048 3.49517
upperback 8.1955 5.5432 4.41543
thorax 2.5754 2.58356 2.18056
lowerneck -13.1551 8.93251 12.2553
upperneck 26.4581 7.57273 3.19597
head 11.2465 4.77443 0.146201
rclavicle -1.27222e-014 5.96354e-015
rhumerus -20.8469 58.6928 -83.2365
rradius 88.1238
rwrist -52.6906
rhand 31.3244 -14.0926
rfingers 7.12502
rthumb 54.8936 -32.308
lclavicle -1.27222e-014 5.96354e-015
lhumerus -42.7443 -10.4076 69.8921
lradius 40.0209
lwrist 58.143
lhand 1.37587 1.16439
lfingers 7.12502
lthumb 26.9075 29.2691
rfemur -96.0982 4.23721 0.0373718
rtibia 28.2565
rfoot 0.284476 -19.5385
rtoes 8.49445
lfemur 0 0 0
ltibia 0
lfoot 0 0
ltoes 0
228
root 3.63153 15.573 31.2552 39.0843 -84.5675 32.3928
lowerback 10.6176 4.44808 3.53131
upperback 8.22053 5.54054 4.43754
thorax 2.56923 2.58156 2.18049
lowerneck -13.1795 8.92353 12.2537
upperneck 26.4327 7.57285 3.15417
head 11.2427 4.76956 0.131725
rclavicle -1.36764e-013 -4.17448e-014
rhumerus -20.8088 58.7613 -83.1659
rradius 88.1617
rwrist -52.7367
rhand 31.4123 -14.1453
rfingers 7.12502
rthumb 54.972 -32.3043
lclavicle -1.36764e-013 -4.17448e-014
lhumerus -42.5925 -10.3862 69.8855
lradius 40.0072
lwrist 58.2248
lhand 0.896268 0.98946
lfingers 7.12502
lthumb 26.4486 29.164
rfemur -96.1769 4.21233 0.0558382
rtibia 28.2427
rfoot 0.296953 -19.5221
rtoes 8.49229
lfemur 0 0 0
ltibia 0
lfoot 0 0
ltoes 0
229
root 3.62902 15.5716 31.2553 39.1903 -84.5764 32.3721
lowerback 10.6706 4.44327 3.55887
upperback 8.2419 5.53451 4.45467
thorax 2.56457 2.57797 2.18084
lowerneck -13.206 8.91747 12.243
upperneck 26.4132 7.57409 3.12641
head 11.2405 4.76594 0.124111
rclavicle -6.36111e-015 3.24019e-014
rhumerus -20.7779 58.8509 -83.1133
rradius 88.1723
rwrist -52.8008
rhand 31.6345 -14.1179
rfingers 7.12502
rthumb 55.1701 -32.1329
lclavicle -6.36111e-015 3.24019e-014
lhumerus -42.4567 -10.3754 69.8841
lradius 40.0103
lwrist 58.3485
lhand 0.394648 0.830162
lfingers 7.12502
lthumb 25.9683 29.0761
rfemur -96.2556 4.18883 0.0651086
rtibia 28.232
rfoot 0.311814 -19.5074
rtoes 8.46759
lfemur 0 0 0
ltibia 0
lfoot 0 0
ltoes 0
230
root 3.62654 15.5703 31.2557 39.2247 -84.5907 32.4188
lowerback 10.7149 4.43225 3.58229
upperback 8.26083 5.52054 4.46286
thorax 2.56256 2.57084 2.17538
lowerneck -13.2288 8.91653 12.2274
upperneck 26.3962 7.57964 3.11157
head 11.238 4.76509 0.122453
rclavicle -7.31528e-014 -1.41137e-014
rhumerus -20.7483 58.9629 -83.0804
rradius 88.1561
rwrist -52.8746
rhand 31.9937 -14.0005
rfingers 7.12502
rthumb 55.4898 -31.7788
lclavicle -7.31528e-014 -1.41137e-014
lhumerus -42.3367 -10.3646 69.8758
lradius 40.0307
lwrist 58.4957
lhand -0.130863 0.68818
lfingers 7.12502
lthumb 25.465 29.0069
rfemur -96.3321 4.16521 0.0661436
rtibia 28.2245
rfoot 0.326609 -19.4922
rtoes 8.43973
lfemur 0 0 0
ltibia 0
lfoot 0 0
ltoes 0
231
root 3.62415 15.5692 31.2565 39.2059 -84.6099 32.5118
lowerback 10.7553 4.41828 3.60253
upperback 8.27616 5.5031 4.46606
thorax 2.55901 2.5622 2.16686
lowerneck -13.2483 8.91695 12.2072
upperneck 26.3852 7.58648 3.10195
head 11.2368 4.76507 0.123566
rclavicle -2.22639e-014 -1.51076e-014
rhumerus -20.7165 59.084 -83.0579
rradius 88.1163
rwrist -52.9406
rhand 32.422 -13.8002
rfingers 7.12502
rthumb 55.8702 -31.2901
lclavicle -2.22639e-014 -1.51076e-014
lhumerus -42.2313 -10.3502 69.8669
lradius 40.0608
lwrist 58.646
lhand -0.634559 0.552134
lfingers 7.12502
lthumb 24.9824 28.9388
rfemur -96.4027 4.14349 0.0611782
rtibia 28.2183
rfoot 0.339364 -19.4763
rtoes 8.40768
lfemur 0 0 0
ltibia 0
lfoot 0 0
ltoes 0
232
root 3.62185 15.5684 31.2576 39.1601 -84.6325 32.6218
lowerback 10.793 4.40349 3.6207
upperback 8.28868 5.48484 4.46686
thorax 2.55392 2.55326 2.15712
lowerneck -13.2616 8.9167 12.181
upperneck 26.376 7.59243 3.09947
head 11.2344 4.76485 0.127786
rclavicle 1.01778e-013 2.52457e-014
rhumerus -20.6775 59.1984 -83.0355
rradius 88.0704
rwrist -52.987
rhand 32.7974 -13.5702
rfingers 7.12502
rthumb 56.2028 -30.8016
lclavicle 1.01778e-013 2.52457e-014
lhumerus -42.1382 -10.3369 69.8606
lradius 40.0941
lwrist 58.7879
lhand -1.1096 0.422598
lfingers 7.12502
lthumb 24.5271 28.8718
rfemur -96.4638 4.12573 0.0534627
rtibia 28.2121
rfoot 0.356834 -19.4581
rtoes 8.33518
lfemur 0 0 0
ltibia 0
lfoot 0 0
ltoes 0
233
root 3.61969 15.5679 31.2589 39.085 -84.6587 32.7503
lowerback 10.8296 4.3904 3.63674
upperback 8.29889 5.46896 4.46666
thorax 2.54681 2.54549 2.14727
lowerneck -13.2738 8.9142 12.157
upperneck 26.3726 7.59721 3.08846
head 11.2344 4.76363 0.128536
rclavicle -1.08139e-013 -7.83212e-014
rhumerus -20.6313 59.2933 -83.005
rradius 88.0316
rwrist -53.0029
rhand 33.0383 -13.3594
rfingers 7.12502
rthumb 56.4158 -30.422
lclavicle -1.08139e-013 -7.83212e-014
lhumerus -42.0495 -10.3081 69.8528
lradius 40.1232
lwrist 58.8873
lhand -1.53801 0.297007
lfingers 7.12502
lthumb 24.1164 28.8013
rfemur -96.5142 4.1111 0.0427106
rtibia 28.2046
rfoot 0.368764 -19.4378
rtoes 8.31037
lfemur 0 0 0
ltibia 0
lfoot 0 0
ltoes 0
